<svg width="55" height="79" viewBox="0 0 55 79" fill="none" xmlns="http://www.w3.org/2000/svg">
<path fill-rule="evenodd" clip-rule="evenodd" d="M30.2624 8.6398L29.2258 5.38896L31.8681 3.39169V3.25084H28.5666L27.5299 0H27.4144L26.4031 3.25084H23.1016V3.39169L25.7158 5.38896L24.7044 8.6398H24.8932L27.4708 6.71296L30.0737 8.6398H30.2624Z" fill="#00A032"/>
<path fill-rule="evenodd" clip-rule="evenodd" d="M17.6745 12.0851L16.6407 8.83142L19.2802 6.83416V6.69612H15.9787L14.942 3.44528H14.8265L13.8152 6.69612H10.5137V6.83697L13.1279 8.83142L12.1166 12.0851H12.3053L14.8857 10.1554L17.4858 12.0851H17.6745Z" fill="#00A032"/>
<path fill-rule="evenodd" clip-rule="evenodd" d="M37.3177 12.0851L38.3544 8.83142L35.7148 6.83416V6.69612H39.0164L40.0502 3.44528H40.1686L41.1799 6.69612H44.4814V6.83697L41.8672 8.83142L42.8785 12.0851H42.6898L40.1094 10.1554L37.5093 12.0851H37.3177Z" fill="#00A032"/>
<path fill-rule="evenodd" clip-rule="evenodd" d="M7.16368 19.7925L6.12984 16.5417L8.76938 14.5416V14.4036H5.46784L4.43117 11.1527H4.31567L3.30436 14.4036H0V14.5444L2.61701 16.5417L1.6057 19.7925H1.79444L4.37483 17.8629L6.97494 19.7925H7.16368Z" fill="#00A032"/>
<path fill-rule="evenodd" clip-rule="evenodd" d="M53.3629 19.7925L52.3262 16.5417L54.9686 14.5416V14.4036H51.6642L50.6304 11.1527H50.5149L49.5036 14.4036H46.1992V14.5444L48.8162 16.5417L47.8049 19.7925H47.9937L50.5712 17.8629L53.1713 19.7925H53.3629Z" fill="#00A032"/>
<path d="M27.5009 73.4732C24.0416 70.3801 20.6584 69.0111 17.8329 67.8702C14.568 66.5518 12.2073 65.5968 10.2946 62.4164C9.01 60.2839 8.3311 57.7768 8.3311 55.1654V36.3956C8.3311 33.8096 7.76488 31.325 6.64652 29.0066C6.47187 28.6488 6.28595 28.2967 6.08594 27.9502C10.0551 26.5445 12.8552 24.1923 15.4187 22.0401C19.002 19.0287 21.8331 16.6511 27.5009 16.6511C33.1688 16.6511 36.1182 19.1386 39.2592 21.7696L39.5775 22.0373C42.1382 24.1895 44.9411 26.5445 48.9103 27.9474C47.4567 30.4855 46.6679 33.3842 46.6679 36.3928V55.1626C46.6679 57.7683 45.989 60.2783 44.7045 62.4164C42.8818 65.4447 40.817 66.3912 37.3239 67.8054L37.1577 67.873C34.335 69.0139 30.9546 70.383 27.4981 73.4732H27.5009Z" fill="#005FE6"/>
<path d="M41.4884 33.8126V52.1627H41.325L37.6516 48.4752C37.1361 47.9597 36.4375 47.6696 35.7107 47.6696H32.1922V51.1908C32.1922 51.9176 32.4824 52.6134 32.9951 53.129L36.6826 56.8136V56.977H18.3325V56.8136L22.02 53.129C22.5327 52.6134 22.8228 51.9148 22.8228 51.1908V47.6724H19.2875C18.5579 47.6724 17.8592 47.9625 17.3465 48.4781L13.6732 52.1655H13.5098V33.8098H13.6732L17.3465 37.4973C17.8621 38.0128 18.5607 38.303 19.2875 38.303H22.8228V34.7817C22.8228 34.0549 22.5327 33.3591 22.02 32.8436L18.3325 29.1589V28.9955H36.6798V29.1589L32.9923 32.8436C32.4796 33.3591 32.1894 34.0577 32.1894 34.7817V38.303H35.7079C36.4375 38.303 37.1361 38.0128 37.6488 37.4973L41.3222 33.8098H41.4856L41.4884 33.8126Z" fill="white"/>
<path d="M20.3812 43.4242C20.3812 43.7144 20.401 43.9538 20.4404 44.1397C20.4798 44.3257 20.5503 44.4721 20.6517 44.5792C20.7559 44.6862 20.8968 44.7595 21.077 44.8017C21.2573 44.844 21.4883 44.8637 21.7729 44.8637H22.6151C22.7532 44.8637 22.9137 44.8637 23.0968 44.8581C23.28 44.8524 23.4997 44.8496 23.7588 44.844L23.4687 46.4272C23.249 46.4328 23.0659 46.4384 22.9137 46.4412C22.7616 46.4441 22.6264 46.4469 22.5081 46.4469H21.6461C21.0601 46.4469 20.5643 46.3962 20.1587 46.2919C19.753 46.1877 19.4235 46.0187 19.1671 45.7849C18.9136 45.5511 18.7277 45.2384 18.6122 44.8524C18.4967 44.4665 18.4375 43.9848 18.4375 43.4129V42.5538C18.4375 42.0073 18.4967 41.5396 18.6122 41.1537C18.7277 40.7678 18.9136 40.4551 19.1727 40.2156C19.4291 39.9762 19.7615 39.8043 20.1643 39.6945C20.5672 39.5846 21.0573 39.5311 21.6376 39.5311H22.5081C22.6518 39.5311 22.8208 39.5311 23.0152 39.5367C23.2095 39.5395 23.4377 39.5452 23.7025 39.5508L23.4124 41.134C23.1025 41.1199 22.8433 41.1143 22.6292 41.1143H21.7616C21.4771 41.1143 21.2461 41.134 21.0658 41.1762C20.8855 41.2185 20.7418 41.2917 20.6404 41.3988C20.5362 41.5058 20.4686 41.6523 20.432 41.8382C20.3953 42.0242 20.3784 42.2636 20.3784 42.5538V43.4242H20.3812Z" fill="#001E73"/>
<path d="M24.7148 39.5479H28.2305C28.9657 39.5479 29.4981 39.6916 29.8305 39.9789C30.163 40.2663 30.3292 40.6916 30.3292 41.2578V41.3846C30.3292 42.0551 30.0615 42.5199 29.5263 42.7762C29.8475 42.8974 30.0953 43.0861 30.27 43.3424C30.4447 43.596 30.532 43.9312 30.532 44.3425V44.5171C30.532 45.1932 30.3292 45.6806 29.9235 45.982C29.5179 46.2806 28.9094 46.4299 28.0981 46.4299H24.7177V39.5507L24.7148 39.5479ZM28.5375 41.5283C28.5375 41.3226 28.4868 41.1762 28.3826 41.0888C28.2784 41.0015 28.1037 40.9592 27.8502 40.9592H26.4417V42.2241H27.822C28.0868 42.2241 28.2699 42.1762 28.377 42.0832C28.484 41.9903 28.5375 41.8381 28.5375 41.6241V41.5283ZM26.4445 45.0157H27.9206C28.2164 45.0157 28.4249 44.9679 28.5488 44.8749C28.6699 44.7819 28.7319 44.6073 28.7319 44.3481V44.2213C28.7319 43.9509 28.6699 43.7678 28.5432 43.6748C28.4164 43.5819 28.1995 43.534 27.8896 43.534H26.4445V45.0129V45.0157Z" fill="#001E73"/>
<path d="M36.5607 39.5479L36.279 41.055H33.1803V42.3903H36.1156L35.8452 43.8467H33.1803V46.4271H31.3633V39.5479H36.5607Z" fill="#001E73"/>
<path d="M13.5078 42.9875V38.3028H9.18087V42.9875H13.5078Z" fill="#00A032"/>
<path d="M41.4902 42.9876V47.6723H45.8172V42.9876H41.4902Z" fill="#00A032"/>
<path d="M49.9954 38.3029H46.6628V36.3958C46.6628 33.39 47.4516 30.4885 48.9024 27.9504C44.936 26.5475 42.1359 24.1925 39.5752 22.0431C35.992 19.0317 33.1609 16.6541 27.4958 16.6541V13.3216C25.7408 13.3216 24.1999 13.5244 22.8111 13.8737V17.3302C19.9434 18.2429 17.8532 19.9951 15.4193 22.0403C12.8586 24.1897 10.0557 26.5447 6.08932 27.9476C7.5429 30.4885 8.32885 33.3872 8.32885 36.393V42.9848H5.00195V47.6695H8.32885V55.1628C8.32885 57.7713 9.01057 60.2785 10.2923 62.4138C12.2079 65.5942 14.5629 66.5464 17.8307 67.8647C20.6561 69.0084 24.0394 70.3747 27.4987 73.4706V78.2229C29.0762 76.3947 30.6425 75.0735 32.1834 74.0453V70.1493C33.9553 69.1662 35.6427 68.4817 37.1667 67.8647C40.4316 66.5492 42.7923 65.5942 44.705 62.4138C45.9896 60.2785 46.6685 57.7713 46.6685 55.1628V42.9848H50.001V38.3001L49.9954 38.3029ZM45.8149 55.1656C45.8149 57.6192 45.1783 59.9771 43.9726 61.9772C42.2063 64.9125 40.0738 65.7717 36.8455 67.0788C35.437 67.6478 33.8539 68.2901 32.1805 69.1831V56.9769H27.4958V72.341C24.1239 69.493 20.828 68.1605 18.1518 67.0788C14.9207 65.7717 12.7882 64.9125 11.0219 61.9772C9.81624 59.9771 9.17959 57.6192 9.17959 55.1656V47.6723H13.5065V42.9876H9.17959V36.3958C9.17959 33.6126 8.52886 30.8688 7.29501 28.4011C10.9261 26.9222 13.591 24.6855 15.9658 22.691C18.318 20.7135 20.2477 19.1021 22.8083 18.2232V28.9927H27.493V17.5077C32.8454 17.5077 35.437 19.6852 39.0231 22.6938C41.3978 24.6883 44.0627 26.9278 47.6939 28.4039C46.4572 30.8716 45.8093 33.6154 45.8093 36.3986V38.3057H41.4823V42.9904H45.8093V55.1684L45.8149 55.1656Z" fill="#FFCD00"/>
<path d="M32.1808 18.2259C30.8427 17.7667 29.3356 17.5047 27.4961 17.5047V28.9954H32.1808V18.2231V18.2259Z" fill="#00A032"/>
<path d="M22.8125 69.1829C24.3196 69.9857 25.9 70.9942 27.4972 72.3436V56.9796H22.8125V69.1829Z" fill="#00A032"/>
<path d="M27.5 16.6568C33.165 16.6568 35.9961 19.0344 39.5794 22.0458C42.14 24.1952 44.9402 26.5502 48.9065 27.9531C47.4558 30.494 46.667 33.3927 46.667 36.3985V38.3056H49.9995V36.3985C49.9995 32.142 51.9489 28.3362 54.9997 25.8262C48.515 25.353 44.9796 22.2289 41.3964 19.2231C37.8103 16.2174 34.1763 13.3271 27.5 13.3271V16.6597V16.6568Z" fill="#001E73"/>
<path d="M8.32993 36.3959C8.32993 33.3901 7.5468 30.4886 6.0904 27.9504C10.0568 26.5476 12.8597 24.1925 15.4204 22.0432C17.8571 19.998 19.9473 18.2458 22.8122 17.3331V13.8766C13.6344 16.1838 11.2568 25.0038 0 25.8264C1.52682 27.08 2.77476 28.6603 3.64522 30.4576C4.51287 32.2549 5.00021 34.269 5.00021 36.3987V42.9905H8.32711V36.3987L8.32993 36.3959Z" fill="#001E73"/>
<path d="M17.8287 67.8675C14.5638 66.552 12.2059 65.597 10.2904 62.4166C9.00862 60.2813 8.3269 57.7742 8.3269 55.1656V47.6723H5V55.1656C5 58.3179 5.8113 61.4307 7.43954 64.135C12.3355 72.2734 19.8091 69.3239 27.4883 78.2145V73.465C24.0318 70.3747 20.6514 69.0113 17.8287 67.8675Z" fill="#001E73"/>
<path d="M46.6654 55.1654C46.6654 57.7739 45.9894 60.2811 44.702 62.4164C42.792 65.5968 40.4314 66.5489 37.1636 67.8673C35.6368 68.4842 33.9494 69.1716 32.1719 70.1547V74.0535C34.3861 72.5774 36.5383 71.7154 38.5693 70.8956C42.0117 69.504 45.1048 68.2082 47.5556 64.1348C49.181 61.4332 49.9952 58.3176 49.9952 55.1654V42.9874H46.6626V55.1654H46.6654Z" fill="#001E73"/>
</svg>
